# xmcd
#
# Track frame offsets: 
#        183
#        19535
#        37473
#        54553
#        73125
#        83635
#        101375
#        125033
#        145968
#
# Disc length: 2165 seconds
#
# Revision: 0
# Processed by: cddbd v1.5.1PL0 Copyright (c) Steve Scherf et al.
# Submitted via: ExactAudioCopy v0.95a5
#
DISCID=7f087309
DTITLE=이선희 - 08집
DYEAR=1992
DGENRE=Ballad
TTITLE0=조각배
TTITLE1=언제나 사랑해
TTITLE2=초원
TTITLE3=작은 연가
TTITLE4=성주풀이
TTITLE5=어느 할머니의 극락
TTITLE6=한네의 이별
TTITLE7=방황
TTITLE8=너를 만나고 싶을땐
EXTD=
EXTT0=
EXTT1=
EXTT2=
EXTT3=
EXTT4=
EXTT5=
EXTT6=
EXTT7=
EXTT8=
PLAYORDER=
